<?xml version="1.0" standalone="no"?>
<!DOCTYPE svg PUBLIC "-//W3C//DTD SVG 20010904//EN"
 "http://www.w3.org/TR/2001/REC-SVG-20010904/DTD/svg10.dtd">
<svg version="1.0" xmlns="http://www.w3.org/2000/svg"
 width="415.000000pt" height="415.000000pt" viewBox="0 0 415.000000 415.000000"
 preserveAspectRatio="xMidYMid meet">
<metadata>
Created by potrace 1.11, written by Peter Selinger 2001-2013
</metadata>
<g transform="translate(0.000000,415.000000) scale(0.100000,-0.100000)"
fill="#000000" stroke="none">
<path d="M3669 2796 c-2 -2 -53 -6 -114 -9 -116 -6 -163 -13 -202 -28 -14 -5
-29 -7 -34 -3 -5 3 -9 0 -9 -5 0 -6 -5 -11 -11 -11 -16 0 -121 -53 -148 -75
-69 -56 -121 -139 -140 -224 -9 -42 -8 -168 2 -201 30 -104 120 -181 292 -248
180 -71 225 -108 225 -185 0 -81 -61 -134 -181 -156 -51 -9 -171 -7 -239 4
-65 10 -178 44 -185 55 -13 21 -24 8 -41 -47 -9 -32 -19 -67 -21 -77 -2 -11
-8 -25 -14 -33 -6 -7 -9 -13 -5 -13 3 0 -1 -16 -9 -36 -8 -20 -15 -42 -15 -48
0 -16 178 -60 290 -73 272 -30 542 32 667 153 43 42 103 134 109 169 1 5 6 28
11 50 13 58 8 157 -13 223 -33 105 -142 190 -337 262 -31 12 -63 27 -70 33 -7
7 -19 13 -27 15 -36 8 -80 72 -74 110 1 6 2 18 3 25 2 30 53 71 104 84 40 11
251 12 297 3 66 -14 123 -32 138 -43 8 -6 16 -6 21 -1 6 7 36 99 56 169 1 6 4
15 5 20 2 6 9 25 17 43 13 31 12 33 -11 42 -39 15 -165 38 -246 45 -41 4 -78
9 -81 11 -3 2 -8 2 -10 0z"/>
<path d="M395 2748 c-28 -130 -35 -163 -40 -191 -3 -17 -8 -39 -10 -47 -2 -8
-6 -26 -9 -40 -3 -14 -7 -34 -10 -45 -19 -83 -27 -120 -32 -153 -3 -20 -8 -44
-11 -52 -3 -8 -7 -24 -8 -35 -2 -11 -13 -65 -25 -120 -12 -55 -24 -111 -27
-125 -2 -14 -13 -65 -24 -115 -12 -49 -23 -101 -25 -115 -2 -14 -7 -38 -11
-55 -4 -16 -8 -34 -9 -40 -1 -5 -11 -54 -23 -107 -11 -54 -21 -100 -21 -103 0
-3 77 -4 172 -3 143 3 171 5 173 18 2 8 8 40 14 70 6 30 13 66 16 80 14 73 25
128 30 150 3 14 7 36 10 50 3 14 7 34 9 45 25 122 94 465 95 478 1 4 7 7 15 7
13 0 46 -79 61 -146 2 -10 16 -57 30 -104 33 -105 76 -252 80 -265 1 -5 5 -17
8 -25 7 -18 69 -221 71 -235 1 -5 10 -36 19 -67 l18 -58 227 0 228 0 14 68 c8
37 15 72 16 77 1 9 25 118 30 140 2 11 10 48 18 85 7 32 25 119 30 145 2 11
16 76 31 145 15 69 28 134 31 145 2 11 6 31 9 45 3 14 7 34 9 45 3 11 9 40 15
65 5 25 13 60 16 79 3 19 7 37 9 40 2 3 7 22 10 41 3 19 13 69 22 110 9 41 19
90 21 108 l5 32 -166 0 c-186 0 -179 3 -191 -80 -4 -25 -8 -47 -10 -50 -2 -3
-6 -21 -9 -40 -3 -19 -8 -46 -11 -60 -3 -14 -7 -36 -10 -50 -6 -31 -25 -128
-31 -155 -2 -11 -6 -31 -9 -45 -13 -65 -46 -228 -51 -250 -3 -14 -7 -36 -9
-50 -2 -14 -7 -36 -10 -50 -3 -14 -8 -36 -11 -50 -8 -42 -14 -54 -23 -44 -9 9
-28 65 -35 100 -3 10 -9 31 -15 47 -6 15 -8 27 -5 27 2 0 0 8 -5 19 -6 10 -13
33 -16 51 -3 18 -10 40 -14 49 -5 9 -9 18 -9 21 -1 3 -3 12 -6 20 -2 8 -12 42
-21 75 -9 33 -21 71 -26 85 -4 14 -29 97 -55 185 -25 88 -51 178 -58 200 l-12
40 -227 3 -227 2 -5 -22z"/>
<path d="M1802 2718 c-16 -72 -21 -97 -28 -138 -3 -19 -8 -44 -12 -55 -3 -11
-6 -22 -7 -25 -1 -5 -4 -22 -20 -100 -3 -14 -8 -38 -11 -55 -3 -16 -14 -70
-25 -118 -10 -48 -22 -105 -25 -125 -3 -20 -8 -40 -10 -43 -2 -4 -6 -24 -10
-44 -3 -21 -8 -47 -10 -59 -3 -11 -7 -32 -10 -46 -2 -14 -7 -38 -11 -55 -4
-16 -8 -34 -9 -40 -1 -5 -18 -89 -39 -185 -20 -96 -39 -187 -41 -202 l-5 -28
184 0 c140 0 184 3 184 13 1 14 10 60 17 85 3 9 7 34 11 56 3 21 7 41 9 45 2
3 7 24 10 46 4 22 11 56 16 75 5 19 11 52 14 72 3 21 10 57 15 80 6 24 12 56
15 72 3 16 8 31 11 35 4 3 103 6 220 6 210 1 213 1 209 -20 -2 -11 -7 -36 -10
-55 -3 -19 -10 -53 -16 -75 -11 -43 -15 -63 -23 -110 -3 -16 -8 -37 -10 -45
-2 -8 -7 -30 -10 -48 -3 -18 -12 -65 -21 -105 -9 -39 -18 -84 -20 -99 l-5 -27
172 -3 c175 -3 198 1 200 35 1 16 4 33 29 150 27 123 29 134 35 172 3 17 8 37
10 45 2 8 7 30 10 47 3 18 12 61 20 95 8 35 17 79 20 98 3 19 8 42 10 50 2 8
6 26 9 40 3 14 17 81 31 150 14 69 28 136 31 150 2 14 9 45 14 70 14 59 19 87
26 130 3 19 9 51 15 70 19 74 29 70 -171 70 -99 0 -180 -1 -180 -3 0 -3 -27
-138 -78 -387 l-28 -135 -218 0 -218 -1 7 31 c3 16 9 41 11 55 9 43 65 314 70
335 2 11 7 33 9 48 3 16 7 34 8 40 1 9 -48 13 -179 15 l-181 2 -11 -52z"/>
</g>
</svg>
